<?xml version="1.0" standalone="no"?>
<!DOCTYPE svg PUBLIC "-//W3C//DTD SVG 20010904//EN"
 "http://www.w3.org/TR/2001/REC-SVG-20010904/DTD/svg10.dtd">
<svg version="1.0" xmlns="http://www.w3.org/2000/svg"
 width="700.000000pt" height="700.000000pt" viewBox="0 0 700.000000 700.000000"
 preserveAspectRatio="xMidYMid meet">
<metadata>
Created by potrace 1.11, written by Peter Selinger 2001-2013
</metadata>
<g transform="translate(0.000000,700.000000) scale(0.100000,-0.100000)"
fill="#000000" stroke="none">
<path d="M3349 5682 c-12 -11 -23 -25 -25 -33 -1 -8 -3 -18 -5 -24 -3 -9 7
-117 16 -190 3 -16 9 -68 15 -115 6 -47 13 -98 15 -115 3 -16 9 -68 15 -115
12 -96 20 -154 25 -190 2 -14 6 -45 9 -70 3 -25 8 -63 11 -85 2 -22 7 -56 9
-75 14 -110 19 -146 32 -250 9 -63 17 -116 19 -118 2 -2 13 75 20 143 3 27 17
133 20 155 3 14 7 47 9 74 3 26 8 65 10 85 10 67 46 346 51 396 3 28 10 77 15
110 5 33 12 87 15 120 4 33 8 67 10 75 13 50 16 153 5 185 -16 47 -38 55 -165
55 -85 0 -107 -3 -126 -18z"/>
<path d="M4087 5283 c-8 -10 -28 -47 -42 -83 -36 -86 -40 -97 -63 -150 -11
-25 -50 -117 -86 -205 -37 -88 -71 -169 -76 -180 -5 -11 -28 -65 -50 -120 -23
-55 -48 -113 -56 -129 -30 -62 -11 -44 77 70 50 66 100 130 110 144 162 209
387 511 396 531 16 38 -4 62 -87 104 -78 39 -100 43 -123 18z"/>
<path d="M2816 5219 c-43 -12 -123 -69 -136 -97 -8 -20 -7 -31 8 -57 17 -28
209 -284 266 -356 12 -14 30 -38 41 -53 11 -15 45 -60 75 -100 31 -39 89 -115
129 -168 41 -54 76 -98 78 -98 2 0 2 3 0 8 -3 4 -28 63 -57 132 -28 69 -57
139 -64 155 -8 17 -64 152 -126 300 -62 149 -119 282 -128 297 -20 34 -50 47
-86 37z"/>
<path d="M4660 4974 c-167 -32 -221 -68 -370 -244 -30 -36 -57 -67 -60 -70 -3
-3 -30 -34 -60 -70 -30 -36 -61 -72 -70 -81 -8 -8 -33 -37 -55 -64 -22 -26
-44 -53 -50 -59 -11 -13 -169 -196 -206 -240 -13 -15 -33 -38 -44 -50 -11 -12
-40 -46 -65 -76 -25 -30 -55 -65 -68 -78 -12 -14 -41 -48 -65 -76 -23 -27 -52
-61 -63 -75 -25 -30 -32 -11 100 -284 l86 -178 28 19 c48 34 105 53 172 56 57
3 72 0 123 -27 209 -110 216 -393 12 -512 -22 -13 -57 -27 -78 -31 l-38 -6 6
-42 c3 -22 8 -54 11 -71 2 -16 5 -87 6 -156 l2 -127 65 -17 c36 -10 138 -37
226 -61 88 -23 212 -56 275 -73 63 -16 234 -62 380 -101 146 -40 274 -74 285
-77 11 -3 146 -39 300 -80 154 -41 341 -91 415 -110 243 -64 259 -69 264 -74
3 -3 -4 -34 -15 -69 -35 -109 -59 -204 -59 -232 0 -15 10 -39 23 -53 19 -23
57 -36 247 -86 124 -33 239 -61 256 -62 49 -2 80 25 98 85 16 55 49 180 116
433 21 83 71 269 110 415 96 361 98 371 95 469 -2 91 -2 92 -70 446 -24 127
-53 280 -65 340 -11 61 -23 121 -25 135 -3 14 -7 39 -10 55 -3 17 -10 53 -15
80 -5 28 -11 61 -14 75 -2 14 -13 72 -24 130 -12 58 -24 121 -27 140 -25 143
-59 213 -145 301 -36 36 -89 78 -118 93 -43 22 -161 58 -260 81 -9 2 -120 31
-247 63 -663 171 -804 207 -963 248 -95 25 -194 47 -220 50 -26 3 -51 6 -57 8
-5 1 -39 -3 -75 -10z m285 -434 c42 -11 127 -34 188 -51 62 -17 135 -37 162
-44 28 -8 109 -30 180 -50 72 -20 137 -38 145 -40 8 -1 58 -15 110 -30 52 -14
129 -35 170 -46 341 -91 404 -117 450 -181 45 -62 59 -114 114 -413 2 -11 7
-38 11 -60 4 -22 9 -51 11 -65 3 -14 13 -70 24 -125 11 -55 21 -111 24 -125 2
-14 9 -54 16 -90 7 -36 14 -76 17 -90 2 -14 8 -43 13 -65 5 -22 7 -41 5 -43
-4 -4 -85 15 -265 64 -52 14 -102 27 -110 29 -22 6 -969 260 -1160 311 -30 9
-102 28 -160 43 -58 16 -150 41 -205 55 -55 15 -134 36 -175 47 -41 11 -167
45 -280 76 -113 30 -215 57 -227 59 -12 2 -31 8 -42 12 -21 7 -20 8 6 38 16
17 53 60 83 95 30 35 57 66 60 69 3 3 30 34 60 70 30 36 57 67 60 70 3 3 34
39 70 80 36 41 69 80 75 86 16 18 57 65 114 134 105 124 172 180 241 200 38
11 130 3 215 -20z m1507 -1828 c84 -37 145 -107 171 -193 38 -129 -32 -277
-163 -341 -63 -31 -177 -31 -237 0 -59 30 -111 85 -139 146 -31 67 -29 176 6
254 58 133 225 195 362 134z"/>
<path d="M973 4376 c-85 -21 -164 -66 -229 -130 -61 -62 -82 -99 -219 -391
-23 -49 -72 -151 -108 -225 -72 -150 -145 -304 -217 -455 -26 -55 -71 -149
-99 -208 -104 -219 -96 -144 -96 -929 l0 -687 23 -23 c22 -23 27 -23 275 -25
266 -3 308 2 330 40 7 14 14 82 17 182 l5 160 1238 1 c680 0 1238 -2 1238 -5
1 -3 2 -73 3 -156 1 -82 6 -160 10 -173 16 -47 42 -51 325 -49 l263 2 24 29
25 28 -3 682 -3 681 -24 69 c-12 38 -42 110 -66 160 -83 176 -133 283 -219
459 -47 99 -86 180 -86 182 0 3 -168 354 -231 480 -73 148 -166 235 -304 287
l-60 23 -880 1 c-668 2 -892 -1 -932 -10z m1705 -395 c88 -30 123 -74 218
-269 46 -95 84 -174 84 -176 0 -2 25 -57 56 -122 31 -66 70 -148 86 -184 17
-36 52 -111 79 -167 l48 -103 -1365 0 c-1297 0 -1364 1 -1355 18 10 18 97 200
166 347 277 587 311 640 425 662 13 2 27 6 29 9 3 2 336 4 740 4 686 -1 740
-2 789 -19z m-1943 -1378 c222 -109 208 -423 -23 -525 -98 -44 -224 -19 -305
60 -47 45 -67 81 -82 147 -55 240 187 428 410 318z m2514 22 c109 -20 210
-146 213 -267 6 -217 -229 -369 -421 -272 -96 48 -154 146 -154 264 0 130 57
215 178 265 56 22 101 25 184 10z"/>
</g>
</svg>
