<?xml version="1.0" encoding="iso-8859-1"?>
<!-- Generator: Adobe Illustrator 16.0.0, SVG Export Plug-In . SVG Version: 6.00 Build 0)  -->
<!DOCTYPE svg PUBLIC "-//W3C//DTD SVG 1.1//EN" "http://www.w3.org/Graphics/SVG/1.1/DTD/svg11.dtd">
<svg version="1.1" id="Capa_1" xmlns="http://www.w3.org/2000/svg" xmlns:xlink="http://www.w3.org/1999/xlink" x="0px" y="0px"
	 width="611.962px" height="611.962px" viewBox="0 0 611.962 611.962" style="enable-background:new 0 0 611.962 611.962;"
	 xml:space="preserve">
<g>
	<path d="M372.8,165.581l-50.3,65.9l32.2-76.9c0.8-4,4-6.3,6.3-6.3c0.8,0,1.5,0.8,3.1,1.5l4.7,2.3l4.7,2.3
		C377.6,156.981,376.8,160.781,372.8,165.581z M304.6,237.781l14.1-110.7c1.5-7.8-0.8-13.3-6.3-13.3H305.3c-1.5,0-8.6,0-8.6,0
		c-5.5,0-7.8,4.7-6.3,13.3L304.6,237.781z M324.2,357.781c4.7,11,6.3,18.101,6.3,28.2v91.8v12.601c0,4-3.1,7.8-7.8,7.8h-40.8
		c-4.7,0-7.8-3.101-7.8-7.8v-12.601v-13.3H56.6v13.3v12.601c0,4-3.1,7.8-7.8,7.8h-41c-4.7,0-7.8-3.101-7.8-7.8v-12.601v-91.8
		c0-10.3,1.5-18.1,6.3-28.2l51-106.7c5.5-12.6,21.2-22.7,35.3-22.7H237c14.1,0,29.9,10.3,36.2,22.7L324.2,357.781z M45.5,353.181
		H284l-34.5-73.7c-7.1-14.1-13.3-17.3-28.2-17.3h-113c-2.3,0-4,0-5.5,0c-11,1.5-16.5,5.5-21.9,17.3L45.5,353.181z M78.5,406.481
		c0-14.1-11.8-25.1-25.9-25.1s-25.1,11-25.1,25.1s11,25.9,25.1,25.9S78.5,420.681,78.5,406.481z M302.9,406.481
		c0-14.1-11.8-25.1-25.9-25.1s-25.1,11-25.1,25.1s11,25.9,25.1,25.9C291.1,432.481,302.9,420.681,302.9,406.481z M287.3,238.481
		l-32.2-76.9c-1.5-4-4-6.3-6.3-6.3c-0.8,0-1.5,0-2.3,0s-0.8,0.8-1.5,0.8l-4.7,2.3l-4,3.1c-4,2.3-3.1,6.3,0.8,11L287.3,238.481z
		 M609.7,389.181l-23.601,88.7l-3.1,11.8c-0.8,4-5.5,6.3-9.4,5.5l-39.199-10.3c-4-0.801-6.301-5.5-5.5-9.4l3.1-11.8l4-12.601
		l-193.9-51.8v-14.899c0-6.301-0.8-13.301-2.3-19.601c10.3-0.8,19.601-7.8,22.7-18.899c4-13.301-4.7-27.4-18.1-31.4
		c-8.601-1.5-17.301,0.8-23.601,6.3l-18.1-37.7c0.8-0.8,1.5-2.3,2.3-3.1l76.9-89.5c7.1-8.6,18.899-13.3,29.899-14.1
		c4,0,7.101,0,10.3,0.8l137.4,35.3c14.1,4,26.7,18.1,29,31.4l21.9,116.2C612.9,371.881,612.2,379.881,609.7,389.181z M576,348.481
		l-14.9-80c-3.1-15.6-8.6-20.4-22.699-24.4l-109.101-29.9c-5.5-1.5-9.399-1.5-13.3-1.5c-6.3,0.8-11.8,4.7-18.1,11.8l-53.4,61.9
		L576,348.481z M561.1,373.581c-1.5-0.8-3.1-0.8-4.699-0.8c-1.601,0-3.101,0-4.7,0c-10.3,0.8-18.9,7.8-21.2,18.9
		c-4,13.3,4,27.399,17.3,31.399s27.4-4.699,31.4-18.1C583,391.481,574.5,377.381,561.1,373.581z"/>
</g>
<g>
</g>
<g>
</g>
<g>
</g>
<g>
</g>
<g>
</g>
<g>
</g>
<g>
</g>
<g>
</g>
<g>
</g>
<g>
</g>
<g>
</g>
<g>
</g>
<g>
</g>
<g>
</g>
<g>
</g>
</svg>
